<svg width="274" height="274" viewBox="0 0 274 274" fill="none" xmlns="http://www.w3.org/2000/svg">
<circle cx="137" cy="137" r="133" fill="white" stroke="#AD94CD" stroke-width="8"/>
<path d="M126.544 101.488V172.048C126.544 181.84 123.712 189.472 118.048 194.944C112.384 200.32 104.8 203.008 95.296 203.008C85.696 203.008 77.92 200.224 71.968 194.656C66.112 189.088 63.184 181.312 63.184 171.328H83.344C83.44 175.648 84.448 179.008 86.368 181.408C88.384 183.808 91.264 185.008 95.008 185.008C98.656 185.008 101.44 183.856 103.36 181.552C105.28 179.248 106.24 176.08 106.24 172.048V101.488H126.544ZM170.221 186.016H203.341V202H150.061V101.488H170.221V186.016Z" fill="#AD94CD"/>
<path d="M88.488 81.904L189 81.904V102.064L88.488 102.064V81.904Z" fill="#AD94CD"/>
</svg>
